<svg version="1.1" viewBox="0.0 0.0 700.0 1334.0" fill="none" stroke="none" stroke-linecap="square" stroke-miterlimit="10" xmlns:xlink="http://www.w3.org/1999/xlink" xmlns="http://www.w3.org/2000/svg"><clipPath id="p.0"><path d="m0 0l700.0 0l0 1334.0l-700.0 0l0 -1334.0z" clip-rule="nonzero"/></clipPath><g clip-path="url(#p.0)"><path fill="#000000" fill-opacity="0.0" d="m0 0l700.0 0l0 1334.0l-700.0 0z" fill-rule="evenodd"/><path fill="#ffffff" d="m0 0l701.0079 0l0 1336.0l-701.0079 0z" fill-rule="evenodd"/><path stroke="#000000" stroke-width="1.0" stroke-linejoin="round" stroke-linecap="butt" d="m0 0l701.0079 0l0 1336.0l-701.0079 0z" fill-rule="evenodd"/><path fill="#ff5757" d="m-8.0 0l0 840.0l720.0 -840.0z" fill-rule="evenodd"/><path stroke="#ff5757" stroke-width="1.0" stroke-linejoin="round" stroke-linecap="butt" d="m-8.0 0l0 840.0l720.0 -840.0z" fill-rule="evenodd"/><path fill="#38b6ff" d="m-80.0 1471.5591l0 -983.5591l1061.0078 983.5591z" fill-rule="evenodd"/><path stroke="#38b6ff" stroke-width="1.0" stroke-linejoin="round" stroke-linecap="butt" d="m-80.0 1471.5591l0 -983.5591l1061.0078 983.5591z" fill-rule="evenodd"/><path fill="#ff5757" d="m917.2598 1576.0l0 -810.1102l-925.2598 810.1102z" fill-rule="evenodd"/><path stroke="#ff5757" stroke-width="1.0" stroke-linejoin="round" stroke-linecap="butt" d="m917.2598 1576.0l0 -810.1102l-925.2598 810.1102z" fill-rule="evenodd"/></g></svg>